<svg width="165" height="32" viewBox="0 0 165 32" fill="none" xmlns="http://www.w3.org/2000/svg">
<path d="M137.366 6.59029C139.186 6.59029 140.661 5.115 140.661 3.29514C140.661 1.47528 139.186 0 137.366 0C135.546 0 134.071 1.47528 134.071 3.29514C134.071 5.115 135.546 6.59029 137.366 6.59029Z" fill="#76B829"/>
<path d="M0.00549719 31.4893L3.83235 9.46567C3.86025 9.30731 3.94351 9.16379 4.06756 9.0602C4.1916 8.95662 4.34855 8.89955 4.51096 8.89899C10.3783 8.90831 13.986 8.91764 15.3339 8.92697C21.6583 8.96195 23.1275 15.0835 19.4476 19.589C19.3673 19.6876 19.3224 19.8105 19.3198 19.9384C19.3173 20.0663 19.3573 20.1919 19.4336 20.2956C22.3789 24.2483 19.9653 29.2156 15.9076 31.2794C15.0074 31.7365 13.4356 31.951 11.1922 31.923C8.15592 31.8857 4.54828 31.8834 0.369296 31.916C0.315729 31.9168 0.262648 31.9058 0.213839 31.8837C0.16503 31.8616 0.121697 31.8291 0.0869432 31.7883C0.0521891 31.7475 0.0268672 31.6996 0.0127883 31.6479C-0.00129059 31.5962 -0.00378104 31.542 0.00549719 31.4893ZM9.0654 18.5046L12.9272 18.4696C13.4394 18.4661 13.9371 18.3011 14.3493 17.9982C14.7615 17.6954 15.0669 17.2702 15.2219 16.7836L15.2569 16.6576C15.3324 16.4244 15.3519 16.1767 15.3138 15.9344C15.2756 15.6922 15.181 15.4621 15.0374 15.2628C14.8938 15.0634 14.7054 14.9003 14.4871 14.7865C14.2689 14.6728 14.0269 14.6115 13.7807 14.6078L9.79299 14.5588C9.66128 14.5581 9.53363 14.6033 9.43254 14.6865C9.33144 14.7697 9.26337 14.8855 9.2403 15.0135L8.69461 18.0708C8.68648 18.125 8.69001 18.1803 8.70497 18.2329C8.71992 18.2855 8.74594 18.3341 8.78121 18.3754C8.81649 18.4167 8.86018 18.4496 8.90926 18.4719C8.95833 18.4942 9.01161 18.5054 9.0654 18.5046ZM7.70817 26.2912L11.528 26.2562C12.0335 26.2514 12.5246 26.088 12.9315 25.7892C13.3384 25.4903 13.6404 25.0711 13.7947 24.5912L13.8367 24.4652C13.911 24.2343 13.9299 23.9892 13.8919 23.7495C13.8539 23.5098 13.7601 23.2823 13.618 23.085C13.4758 22.8878 13.2893 22.7264 13.0734 22.6138C12.8575 22.5011 12.6181 22.4404 12.3745 22.4364L8.42177 22.3804C8.29207 22.3816 8.16704 22.4278 8.06855 22.511C7.97007 22.5941 7.90441 22.7089 7.88307 22.8351L7.33737 25.8574C7.32812 25.9111 7.33081 25.9662 7.34525 26.0187C7.35969 26.0713 7.38553 26.12 7.42093 26.1614C7.45633 26.2028 7.50042 26.2359 7.55007 26.2583C7.59971 26.2808 7.65369 26.292 7.70817 26.2912Z" fill="#FFDE15"/>
<path d="M41.6251 30.6638C41.6747 30.8169 41.6871 30.9796 41.6614 31.1386C41.6356 31.2976 41.5725 31.4484 41.477 31.5787C41.3815 31.709 41.2564 31.815 41.1119 31.8882C40.9675 31.9615 40.8077 31.9998 40.6457 32H37.3085C36.6524 32.0001 36.013 31.7915 35.4825 31.4043C34.9519 31.017 34.5576 30.4712 34.3562 29.8452L32.7471 24.815C32.7068 24.6852 32.6259 24.5717 32.5164 24.4911C32.4069 24.4105 32.2744 24.3672 32.1384 24.3673H30.5503C30.4231 24.3671 30.2999 24.412 30.2026 24.4939C30.1053 24.5759 30.0401 24.6896 30.0186 24.815L29.0392 30.4679C28.9651 30.8929 28.7435 31.2781 28.4133 31.5558C28.0831 31.8335 27.6656 31.9858 27.2342 31.986H23.1905C23.0863 31.9856 22.9836 31.9624 22.8893 31.9181C22.7951 31.8737 22.7117 31.8093 22.6451 31.7293C22.5784 31.6493 22.5301 31.5556 22.5034 31.4549C22.4768 31.3543 22.4725 31.249 22.4909 31.1465L26.2827 9.33975C26.3027 9.22304 26.3638 9.1173 26.4549 9.04162C26.5459 8.96593 26.6611 8.92528 26.7795 8.92698L38.7357 8.94796C38.8753 8.94797 39.0136 8.96204 39.1485 8.98995C47.222 10.676 45.6269 20.0297 39.8971 23.2549C39.7425 23.3428 39.6227 23.481 39.5577 23.6465C39.4928 23.8121 39.4866 23.9949 39.5403 24.1644L41.6251 30.6638ZM31.4808 18.8194L35.6155 18.7634C36.1631 18.7569 36.6945 18.5783 37.1341 18.253C37.5738 17.9277 37.8992 17.4722 38.0641 16.9515L38.1061 16.8185C38.1859 16.5685 38.2057 16.3031 38.164 16.0439C38.1222 15.7846 38.02 15.5387 37.8655 15.3257C37.7111 15.1128 37.5088 14.9388 37.2747 14.8178C37.0407 14.6968 36.7815 14.632 36.518 14.6288L32.2434 14.5868C32.1025 14.5862 31.966 14.6352 31.8584 14.7249C31.7508 14.8146 31.6789 14.9392 31.6557 15.0765L31.082 18.3507C31.0729 18.4091 31.0763 18.4688 31.0922 18.5256C31.1081 18.5825 31.136 18.635 31.174 18.6797C31.212 18.7243 31.2591 18.76 31.3121 18.7841C31.3651 18.8083 31.4227 18.8203 31.4808 18.8194Z" fill="#FFDE15"/>
<path d="M59.6679 31.4193C61.1977 22.9401 61.979 18.5909 62.0116 18.3717C62.2961 16.4641 61.7854 15.1884 60.4795 14.5448C57.9119 13.2855 55.1765 14.8037 54.0571 17.3153C54.0013 17.4454 53.959 17.5838 53.9311 17.728L51.4965 31.4753C51.4734 31.6069 51.4046 31.726 51.3022 31.8118C51.1998 31.8976 51.0704 31.9444 50.9368 31.944H46.7252C46.6608 31.9442 46.5972 31.93 46.5389 31.9025C46.4806 31.8749 46.4289 31.8348 46.3876 31.7848C46.3462 31.7347 46.3162 31.6761 46.2996 31.613C46.283 31.5498 46.2802 31.4837 46.2914 31.4193L49.9714 10.2562C49.9849 10.1762 50.0141 10.0996 50.0574 10.0309C50.1006 9.96219 50.1571 9.90272 50.2234 9.8559C50.2897 9.80908 50.3646 9.77585 50.4438 9.75811C50.5231 9.74036 50.605 9.73846 50.685 9.75251C51.6224 9.90176 52.4107 10.2562 53.0496 10.8159C53.1268 10.8842 53.2262 10.9224 53.33 10.9236C53.4339 10.9249 53.5353 10.8892 53.6163 10.8229C54.2413 10.3239 55.1181 9.87144 56.2468 9.46567C59.8148 8.19239 62.9794 8.91298 65.7405 11.6275C65.7743 11.6617 65.8198 11.6817 65.867 11.6831C65.9142 11.6844 65.9593 11.6669 65.9924 11.6345C72.5617 5.76476 82.657 9.66855 80.4672 19.2881C80.1781 20.5614 79.5741 24.253 78.6552 30.3629C78.6119 30.65 78.495 30.9211 78.3161 31.1498C78.1371 31.3785 77.9023 31.5568 77.6344 31.6675C77.3665 31.7782 77.0748 31.8174 76.7878 31.7812C76.5008 31.7451 76.2282 31.6348 75.9967 31.4613L75.5 31.0905C74.8869 30.6311 74.4149 30.0093 74.1379 29.2956C73.8608 28.582 73.7898 27.8052 73.9329 27.0538C74.404 24.5632 74.9263 21.4919 75.5 17.84C75.8988 15.2724 73.737 13.8522 71.2884 14.16C68.497 14.5028 67.3286 17.0214 66.8949 19.9738C66.629 21.7927 65.9667 25.6103 64.908 31.4263C64.8817 31.57 64.8064 31.6999 64.6951 31.7932C64.5839 31.8866 64.4438 31.9375 64.2993 31.937H60.1017C60.0373 31.937 59.9737 31.9229 59.9154 31.8956C59.8571 31.8684 59.8054 31.8287 59.7641 31.7793C59.7227 31.73 59.6927 31.6722 59.6761 31.61C59.6595 31.5478 59.6567 31.4827 59.6679 31.4193Z" fill="#76B829"/>
<path d="M107.815 10.4381L104.156 31.4893C104.133 31.6183 104.064 31.7349 103.963 31.8182C103.862 31.9015 103.734 31.9461 103.603 31.944L100.469 31.937C100.147 31.9326 99.8392 31.8216 99.5945 31.6222C99.5059 31.5476 99.3823 31.3354 99.2237 30.9856C99.1763 30.8842 99.0917 30.8051 98.9874 30.7647C98.8831 30.7243 98.7673 30.7257 98.664 30.7687C93.8973 32.7556 89.7697 32.2099 86.281 29.1316C83.6085 26.7809 82.3492 22.6113 83.2866 18.9523C85.4834 10.3472 95.1869 5.48492 102.736 11.6345C102.823 11.7037 102.933 11.7377 103.045 11.73C103.156 11.7222 103.26 11.6732 103.337 11.5925C104.597 10.2586 105.952 9.68955 107.402 9.88544C107.466 9.89407 107.528 9.91537 107.584 9.94809C107.64 9.9808 107.689 10.0242 107.727 10.0758C107.766 10.1274 107.793 10.1861 107.808 10.2483C107.823 10.3106 107.826 10.3751 107.815 10.4381ZM99.3288 15.8852C98.7844 15.3075 98.121 14.8526 97.3765 14.5465C96.632 14.2404 95.8209 14.089 94.9897 14.1011C94.1584 14.1132 93.3232 14.2885 92.5317 14.6169C91.7402 14.9454 91.008 15.4206 90.3768 16.0154C89.7456 16.6102 89.2278 17.313 88.853 18.0836C88.4782 18.8542 88.2537 19.6775 88.1923 20.5066C88.131 21.3357 88.2339 22.1543 88.4953 22.9156C88.7568 23.6769 89.1715 24.3661 89.7159 24.9438C90.2603 25.5215 90.9237 25.9764 91.6682 26.2826C92.4127 26.5887 93.2237 26.74 94.055 26.7279C94.8862 26.7158 95.7215 26.5405 96.5129 26.2121C97.3044 25.8836 98.0366 25.4085 98.6678 24.8136C99.299 24.2188 99.8168 23.5161 100.192 22.7455C100.566 21.9749 100.791 21.1515 100.852 20.3224C100.914 19.4934 100.811 18.6748 100.549 17.9134C100.288 17.1521 99.8732 16.4629 99.3288 15.8852Z" fill="#76B829"/>
<path d="M107.948 31.944C107.906 31.9436 107.865 31.9342 107.828 31.9164C107.79 31.8986 107.757 31.8728 107.73 31.8408C107.704 31.8089 107.684 31.7715 107.674 31.7314C107.663 31.6912 107.661 31.6492 107.668 31.6082L111.341 10.4941C111.362 10.3722 111.408 10.256 111.477 10.1529C111.545 10.0498 111.634 9.96192 111.739 9.89488C111.843 9.82784 111.961 9.78306 112.084 9.76337C112.207 9.74369 112.333 9.74952 112.453 9.7805C113.228 9.98571 113.883 10.3169 114.419 10.7739C114.506 10.8467 114.613 10.8893 114.727 10.8956C114.84 10.9019 114.953 10.8715 115.049 10.8089C118.981 8.19939 124.906 7.94053 127.558 12.2711C128.612 13.9875 128.985 15.7411 128.677 17.5321C127.87 22.2242 127.178 26.5151 126.599 30.4049C126.559 30.6829 126.447 30.9459 126.276 31.1687C126.105 31.3916 125.879 31.5668 125.621 31.6776C125.363 31.7885 125.081 31.8313 124.801 31.802C124.522 31.7727 124.254 31.6723 124.025 31.5103L123.479 31.1255C122.865 30.6948 122.387 30.0973 122.1 29.4032C121.814 28.7092 121.732 27.9475 121.863 27.2077C122.693 22.5716 123.113 20.228 123.122 20.1766C123.593 18.1385 123.652 16.7742 123.297 16.084C122.593 14.7221 121.481 14.0598 119.96 14.0971C117.996 14.153 116.476 15.2538 115.399 17.3992C115.376 17.4409 115.359 17.4882 115.35 17.5391L112.901 31.6012C112.886 31.6968 112.836 31.7838 112.761 31.8467C112.685 31.9095 112.588 31.9441 112.488 31.944H107.948Z" fill="#76B829"/>
<path d="M164.175 9.89245C164.239 9.90107 164.301 9.92238 164.357 9.95509C164.413 9.9878 164.462 10.0313 164.5 10.0828C164.539 10.1344 164.566 10.1931 164.581 10.2553C164.596 10.3176 164.599 10.3821 164.588 10.4451L160.908 31.4963C160.885 31.6253 160.816 31.7419 160.715 31.8252C160.614 31.9085 160.486 31.9531 160.355 31.951L157.221 31.937C156.899 31.9326 156.591 31.8216 156.347 31.6222C156.258 31.5476 156.134 31.3354 155.976 30.9856C155.928 30.8842 155.844 30.8051 155.739 30.7647C155.635 30.7243 155.519 30.7257 155.416 30.7687C150.649 32.7556 146.522 32.2076 143.033 29.1246C140.368 26.774 139.108 22.5973 140.046 18.9384C142.249 10.3402 151.96 5.47793 159.502 11.6345C159.589 11.7037 159.699 11.7377 159.811 11.73C159.922 11.7222 160.026 11.6732 160.103 11.5925C161.367 10.2632 162.725 9.69656 164.175 9.89245ZM156.023 15.7917C155.468 15.2245 154.796 14.7823 154.046 14.4903C153.296 14.1983 152.482 14.0622 151.652 14.0898C150.821 14.1174 149.99 14.3082 149.206 14.6512C148.421 14.9942 147.699 15.4827 147.08 16.0889C145.83 17.3131 145.077 18.9421 144.986 20.6177C144.895 22.2932 145.474 23.878 146.596 25.0234C147.151 25.5905 147.823 26.0327 148.573 26.3247C149.323 26.6167 150.136 26.7528 150.967 26.7252C151.797 26.6976 152.628 26.5069 153.413 26.1639C154.197 25.8209 154.92 25.3324 155.539 24.7262C156.789 23.502 157.542 21.8729 157.633 20.1974C157.724 18.5218 157.145 16.9371 156.023 15.7917Z" fill="#76B829"/>
<path d="M133.959 31.986H131.259C131.078 31.9856 130.901 31.9458 130.737 31.8696C130.574 31.7933 130.43 31.6824 130.314 31.5445C130.198 31.4066 130.113 31.2451 130.066 31.0713C130.019 30.8974 130.011 30.7153 130.041 30.5378L133.413 11.1517C133.462 10.8755 133.577 10.6149 133.746 10.3915C133.916 10.1681 134.136 9.98832 134.388 9.86722C134.641 9.74611 134.918 9.68713 135.198 9.69517C135.477 9.7032 135.75 9.77803 135.995 9.91343L136.352 10.1093C137.008 10.4713 137.534 11.0286 137.858 11.7034C138.181 12.3782 138.286 13.1367 138.157 13.8732L135.19 30.9436C135.139 31.236 134.988 31.5009 134.762 31.6916C134.537 31.8823 134.253 31.9866 133.959 31.986Z" fill="#76B829"/>
</svg>
